<?xml version="1.0" encoding="UTF-8" standalone="no"?>
<svg
   width="48"
   height="48"
   version="1"
   id="svg5"
   xmlns:xlink="http://www.w3.org/1999/xlink"
   xmlns="http://www.w3.org/2000/svg"
   xmlns:svg="http://www.w3.org/2000/svg">
  <defs
     id="defs5">
    <linearGradient
       id="linearGradient14">
      <stop
         style="stop-color:#ffffff;stop-opacity:1;"
         offset="0"
         id="stop14" />
      <stop
         style="stop-color:#000000;stop-opacity:0;"
         offset="1"
         id="stop15" />
    </linearGradient>
    <linearGradient
       id="linearGradient12">
      <stop
         style="stop-color:#f9f9f9;stop-opacity:1;"
         offset="0"
         id="stop12" />
      <stop
         style="stop-color:#f9f9f9;stop-opacity:0;"
         offset="1"
         id="stop13" />
    </linearGradient>
    <linearGradient
       id="linearGradient8">
      <stop
         style="stop-color:#e6edff;stop-opacity:1;"
         offset="0.12195119"
         id="stop8" />
      <stop
         style="stop-color:#b2c8c8;stop-opacity:1;"
         offset="0.87073171"
         id="stop10" />
      <stop
         style="stop-color:#000211;stop-opacity:1;"
         offset="0.99756098"
         id="stop9" />
    </linearGradient>
    <filter
       style="color-interpolation-filters:sRGB"
       id="filter5"
       x="-0.029500652"
       y="-0.84107909"
       width="1.0590013"
       height="2.6821582">
      <feGaussianBlur
         stdDeviation="0.49145361"
         id="feGaussianBlur5" />
    </filter>
    <filter
       style="color-interpolation-filters:sRGB"
       id="filter6"
       x="-0.021987377"
       y="-0.048860819"
       width="1.0439748"
       height="1.0977216">
      <feGaussianBlur
         stdDeviation="0.36645635"
         id="feGaussianBlur6" />
    </filter>
    <linearGradient
       xlink:href="#linearGradient8"
       id="linearGradient9"
       x1="24.349045"
       y1="4.0031219"
       x2="23.650949"
       y2="43.996876"
       gradientUnits="userSpaceOnUse" />
    <filter
       style="color-interpolation-filters:sRGB"
       id="filter10"
       x="-0.065130203"
       y="-0.039624981"
       width="1.1344265"
       height="1.1009946">
      <feGaussianBlur
         stdDeviation="0.66778754"
         id="feGaussianBlur10" />
    </filter>
    <filter
       style="color-interpolation-filters:sRGB"
       id="filter12"
       x="-0.069754763"
       y="-0.044215535"
       width="1.1436756"
       height="1.1101757">
      <feGaussianBlur
         stdDeviation="0.74515074"
         id="feGaussianBlur12" />
    </filter>
    <linearGradient
       xlink:href="#linearGradient12"
       id="linearGradient13"
       x1="1.2269294"
       y1="24.662975"
       x2="46.773071"
       y2="24.662975"
       gradientUnits="userSpaceOnUse" />
    <filter
       style="color-interpolation-filters:sRGB"
       id="filter13"
       x="-0.11793789"
       y="-0.1360257"
       width="1.2358759"
       height="1.272068">
      <feGaussianBlur
         stdDeviation="1.1596356"
         id="feGaussianBlur13" />
    </filter>
    <linearGradient
       xlink:href="#linearGradient14"
       id="linearGradient15"
       x1="5.9770093"
       y1="24.672157"
       x2="41.46946"
       y2="24.672157"
       gradientUnits="userSpaceOnUse" />
    <filter
       style="color-interpolation-filters:sRGB"
       id="filter15"
       x="-0.060096008"
       y="-0.057532145"
       width="1.120192"
       height="1.1150643">
      <feGaussianBlur
         stdDeviation="0.88873104"
         id="feGaussianBlur15" />
    </filter>
    <linearGradient
       xlink:href="#linearGradient12"
       id="linearGradient2"
       gradientUnits="userSpaceOnUse"
       x1="1.2269294"
       y1="24.662975"
       x2="46.773071"
       y2="24.662975" />
    <linearGradient
       xlink:href="#linearGradient12"
       id="linearGradient3"
       gradientUnits="userSpaceOnUse"
       x1="1.2269294"
       y1="24.662975"
       x2="46.773071"
       y2="24.662975" />
    <linearGradient
       xlink:href="#linearGradient12"
       id="linearGradient4"
       gradientUnits="userSpaceOnUse"
       x1="1.2269294"
       y1="24.662975"
       x2="46.773071"
       y2="24.662975" />
  </defs>
  <g
     id="g12"
     style="display:inline;mix-blend-mode:normal;fill:#f9f9f9;filter:url(#filter12)"
     transform="translate(0.15815486,-0.31630972)">
    <path
       style="opacity:0.2;fill:#f9f9f9;fill-rule:evenodd;filter:url(#filter6)"
       d="M 5.3764287,26.446458 C 5.2129422,26.446025 2.1078769,26.445516 5.2228029,29.229661 L 21.786089,43.630052 c 0.615085,0.534797 1.249599,0.80623 2.055756,0.816406 0.806157,-0.01018 1.440671,-0.281609 2.055756,-0.816406 L 42.460887,29.229661 c 3.114926,-2.784145 0.0099,-2.783636 -0.153626,-2.783203 H 23.841845 Z"
       id="path10" />
    <path
       style="opacity:0.1;fill:#f9f9f9"
       d="m 13,4 c -0.831,0 -2,0.892 -2,2 v 1 c 0,-1.108 1.169,-2 2,-2 h 22 c 0.831,0 2,0.892 2,2 V 6 C 37,4.892 35.831,4 35,4 Z"
       id="path11" />
    <path
       style="opacity:0.2;fill:#f9f9f9;fill-rule:evenodd;filter:url(#filter5)"
       d="M 5.5351562,26 C 5.4052175,25.999656 3.4262281,26.004636 4.1796875,27.402344 4.5633961,27.003491 5.4495992,26.999773 5.5351562,27 H 24 42.464844 c 0.08556,-2.27e-4 0.97176,0.0035 1.355468,0.402344 C 44.573772,26.004636 42.594783,25.999656 42.464844,26 H 24 Z"
       id="path12" />
  </g>
  <path
     id="path2"
     style="fill:url(#linearGradient9);fill-opacity:1"
     d="M 13,4 C 12.169,4 11,4.892 11,6 L 13.372323,25.762768 5.5351562,26 C 5.3716697,25.999567 2.2659334,25.999058 5.3808594,28.783203 L 21.943359,43.183594 C 22.558444,43.718391 23.193843,43.989824 24,44 c 0.806157,-0.01018 1.441556,-0.281609 2.056641,-0.816406 l 16.5625,-14.400391 C 45.734067,25.999058 42.628331,25.999567 42.464844,26 L 34.074135,25.841845 37,6 C 37.161637,4.9038534 35.831,4 35,4 Z" />
  <g
     id="g7"
     style="display:inline;mix-blend-mode:normal;fill:url(#linearGradient13);fill-opacity:1;filter:url(#filter10)"
     transform="translate(0.15815486,-0.31630972)">
    <path
       style="opacity:0.2;fill:url(#linearGradient2);fill-opacity:1;fill-rule:evenodd;filter:url(#filter6)"
       d="M 5.3764287,26.446458 C 5.2129422,26.446025 2.1078769,26.445516 5.2228029,29.229661 L 21.786089,43.630052 c 0.615085,0.534797 1.249599,0.80623 2.055756,0.816406 0.806157,-0.01018 1.440671,-0.281609 2.055756,-0.816406 L 42.460887,29.229661 c 3.114926,-2.784145 0.0099,-2.783636 -0.153626,-2.783203 H 23.841845 Z"
       id="path1" />
    <path
       style="opacity:0.1;fill:url(#linearGradient3);fill-opacity:1"
       d="m 13,4 c -0.831,0 -2,0.892 -2,2 v 1 c 0,-1.108 1.169,-2 2,-2 h 22 c 0.831,0 2,0.892 2,2 V 6 C 37,4.892 35.831,4 35,4 Z"
       id="path4" />
    <path
       style="opacity:0.2;fill:url(#linearGradient4);fill-opacity:1;fill-rule:evenodd;filter:url(#filter5)"
       d="M 5.5351562,26 C 5.4052175,25.999656 3.4262281,26.004636 4.1796875,27.402344 4.5633961,27.003491 5.4495992,26.999773 5.5351562,27 H 24 42.464844 c 0.08556,-2.27e-4 0.97176,0.0035 1.355468,0.402344 C 44.573772,26.004636 42.594783,25.999656 42.464844,26 H 24 Z"
       id="path5" />
  </g>
  <path
     style="opacity:1;fill:#ffffff;fill-opacity:1;fill-rule:evenodd;stroke:#1e6235;stroke-width:0.138687;stroke-linecap:round;stroke-linejoin:round;stroke-miterlimit:3.6;filter:url(#filter13)"
     d="m 12.019769,6.6425041 2.293246,18.9785829 0.632619,-3.242174 c 0,0 -2.530477,-14.5502474 -2.056013,-15.7364089 C 13.364086,5.4563427 20.481054,5.693575 20.481054,5.693575 L 33.449753,5.614497 c 0,0 1.581548,-1.4233937 1.502471,1.107084 -0.07908,2.5304783 -2.214168,15.420099 -2.214168,15.420099 l 0.553542,2.688633 c 0,0 3.874794,-17.0807249 2.688633,-18.7413509 C 34.794069,4.4283361 32.817133,4.6655684 32.817133,4.6655684 L 12.257002,5.4563427 Z"
     id="path13" />
  <path
     id="path14"
     style="fill:url(#linearGradient15);fill-opacity:1;stroke-width:0.906868;filter:url(#filter15)"
     d="m 13.962773,6.1350906 c -0.737359,0 -1.774629,0.8267532 -1.774629,1.8537068 L 14.29314,26.305986 7.3391101,26.525865 c -0.1450639,-4.01e-4 -2.900828,-8.73e-4 -0.1369098,2.579621 L 21.898342,42.452537 c 0.545774,0.495679 1.109573,0.747257 1.824887,0.756689 0.715315,-0.0094 1.279113,-0.26101 1.824887,-0.756689 L 40.244258,29.105486 c 2.763919,-2.580494 0.0082,-2.580022 -0.13691,-2.579621 L 32.662153,26.379279 35.258315,7.9887974 C 35.401737,6.9728302 34.221044,6.1350906 33.483686,6.1350906 Z" />
</svg>
